<?xml version="1.0" encoding="UTF-8" standalone="no"?>
<svg
   width="100%"
   height="100%"
   viewBox="0 0 1080 1080"
   version="1.1"
   xml:space="preserve"
   style="fill-rule:evenodd;clip-rule:evenodd;stroke-miterlimit:5;"
   id="svg54"
   sodipodi:docname="logo.svg"
   inkscape:version="1.1.1 (3bf5ae0d25, 2021-09-20)"
   xmlns:inkscape="http://www.inkscape.org/namespaces/inkscape"
   xmlns:sodipodi="http://sodipodi.sourceforge.net/DTD/sodipodi-0.dtd"
   xmlns:xlink="http://www.w3.org/1999/xlink"
   xmlns="http://www.w3.org/2000/svg"
   xmlns:svg="http://www.w3.org/2000/svg"><defs
   id="defs58" /><sodipodi:namedview
   id="namedview56"
   pagecolor="#505050"
   bordercolor="#ffffff"
   borderopacity="1"
   inkscape:pageshadow="0"
   inkscape:pageopacity="0"
   inkscape:pagecheckerboard="1"
   showgrid="false"
   inkscape:zoom="0.23668017"
   inkscape:cx="143.65377"
   inkscape:cy="411.94832"
   inkscape:window-width="1360"
   inkscape:window-height="740"
   inkscape:window-x="1360"
   inkscape:window-y="0"
   inkscape:window-maximized="1"
   inkscape:current-layer="svg54" />
    <use
   xlink:href="#_Image1"
   x="112.458"
   y="229.1"
   width="867.625px"
   height="669.651px"
   transform="matrix(0.999568,0,0,0.999479,0,0)"
   id="use2" />
    <g
   transform="matrix(-0.116243,0,0,0.473619,1116.6419,-3587.35)"
   id="g6">
        <rect
   x="3083.23"
   y="8972.3096"
   width="3500.78"
   height="135.72099"
   style="fill:#f9d71c"
   id="rect4" />
    </g>
    <g
   transform="matrix(-0.0900481,0,0,0.473619,991.64557,-3534.08)"
   id="g10">
        <rect
   x="3083.23"
   y="8972.3096"
   width="3500.78"
   height="135.72099"
   style="fill:#f9d71c"
   id="rect8" />
    </g>
    <g
   transform="matrix(-0.0481846,0,0,0.133311,638.25057,-550.685)"
   id="g14">
        <rect
   x="3083.23"
   y="8972.3096"
   width="3500.78"
   height="135.72099"
   style="fill:#f9d71c"
   id="rect12" />
    </g>
    <g
   transform="matrix(-0.17212,-0.0993737,-0.446387,0.773164,5357.0596,-6040.13)"
   id="g18">
        <rect
   x="3083.23"
   y="8972.3096"
   width="3500.78"
   height="135.72099"
   style="fill:#f9d71c"
   id="rect16" />
    </g>
    <g
   transform="matrix(-0.110306,-0.0636855,-0.0916929,0.158817,2130.5096,-798.056)"
   id="g22">
        <rect
   x="3083.23"
   y="8972.3096"
   width="3500.78"
   height="135.72099"
   style="fill:#f9d71c"
   id="rect20" />
    </g>
    <g
   transform="matrix(-0.110306,-0.0636855,-0.0916929,0.158817,2143.0696,-812.682)"
   id="g26">
        <rect
   x="3083.23"
   y="8972.3096"
   width="3500.78"
   height="135.72099"
   style="fill:#f9d71c"
   id="rect24" />
    </g>
    <g
   transform="matrix(-0.110306,-0.0636855,-0.0916929,0.158817,2155.5196,-824.113)"
   id="g30">
        <rect
   x="3083.23"
   y="8972.3096"
   width="3500.78"
   height="135.72099"
   style="fill:#f9d71c"
   id="rect28" />
    </g>
    <g
   transform="matrix(-0.116652,-0.067349,-0.0722158,0.125081,1962.8716,-471.251)"
   id="g34">
        <rect
   x="3083.23"
   y="8972.3096"
   width="3500.78"
   height="135.72099"
   style="fill:#f9d71c"
   id="rect32" />
    </g>
    <g
   transform="matrix(-0.12113,-0.0699344,-0.0722158,0.125081,1966.8766,-449.65)"
   id="g38">
        <rect
   x="3083.23"
   y="8972.3096"
   width="3500.78"
   height="135.72099"
   style="fill:#f9d71c"
   id="rect36" />
    </g>
    <g
   transform="matrix(-0.129529,-0.0747837,-0.0916929,0.158817,2160.3696,-724.985)"
   id="g42">
        <rect
   x="3083.23"
   y="8972.3096"
   width="3500.78"
   height="135.72099"
   style="fill:#f9d71c"
   id="rect40" />
    </g>
    <g
   transform="matrix(-0.0389201,-0.0224705,-0.296775,0.514029,3158.2096,-4228.86)"
   id="g46">
        <rect
   x="3083.23"
   y="8972.3096"
   width="3500.78"
   height="135.72099"
   style="fill:#f9d71c"
   id="rect44" />
    </g>
    <use
   xlink:href="#_Image2"
   x="30"
   y="160"
   width="1045px"
   height="842px"
   id="use48" />
    <g
   transform="matrix(-1.01688,0,0,1.01688,2106.0696,-4627.54)"
   id="g52"
   style="fill:#ff9955">
        <path
   d="m 1825.05,4726.89 h -574.56 l -209.92,208.84 476.59,573.91 38.02,-42.66 471.76,-529.29 z m -20.99,49.17 155.94,162.83 -441.52,495.37 -411.37,-495.37 163.67,-162.83 z"
   style="fill:#ff9955"
   id="path50" />
    </g>
<path
   style="fill:#333333;fill-opacity:1;stroke-width:4.03444"
   d="m 513.02837,839.94849 -48.81135,-55.25051 48.51622,-1.13465 c 26.68393,-0.62405 69.15803,-0.62405 94.3869,0 l 45.87068,1.13465 -45.57555,55.25051 -45.57555,55.25052 z"
   id="path54054" /><path
   style="fill:#333333;fill-opacity:1;stroke-width:4.03444"
   d="m 491.47329,652.57017 c -1.27927,-9.0075 -1.88342,-9.08592 -78.35831,-10.17113 l -77.0691,-1.09365 -110.05413,-123.39951 -110.05414,-123.39952 21.74846,-21.74845 21.74845,-21.74846 266.2357,153.66546 c 146.42963,84.516 266.99216,154.4096 267.91674,155.3191 0.92453,0.9095 -43.88274,1.65364 -99.57172,1.65364 H 492.7625 Z"
   id="path54093" /><path
   style="fill:#333333;fill-opacity:1;stroke-width:4.03444"
   d="M 592.33641,456.4819 C 394.60381,342.04279 371.9491,327.90472 373.81071,320.10711 c 1.74345,-7.30274 -2.35041,-11.25662 -25.49803,-24.62617 -92.91287,-53.66441 -86.37144,-49.01394 -81.01299,-57.59419 4.69874,-7.52388 9.91856,-7.92385 103.41045,-7.92385 h 98.46192 l 214.24509,123.50243 c 117.83477,67.92633 215.71024,124.85493 217.50101,126.50798 3.33261,3.07636 -79.87475,105.35851 -85.09459,104.60196 -1.5865,-0.22996 -102.15573,-57.87196 -223.48716,-128.09337 z"
   id="path54132" /><path
   style="fill:#333333;fill-opacity:1;stroke-width:4.03444"
   d="m 828.30465,307.3013 -129.8741,-75.32118 57.12501,-1.12474 57.125,-1.12475 76.77044,76.77044 c 42.22374,42.22374 74.96084,76.6244 72.7491,76.44592 -2.21174,-0.17848 -62.46469,-34.21904 -133.89545,-75.64569 z"
   id="path54171" /></svg>
